# xmcd
#
# Track frame offsets: 
#        150
#        11459
#        22392
#        34988
#        46301
#        58555
#        69787
#        80587
#        92504
#        109999
#        123757
#        135580
#
# Disc length: 1970 seconds
#
# Revision: 0
# Processed by: cddbd v1.5.2PL0 Copyright (c) Steve Scherf et al.
# Submitted via: ExactAudioCopy v1.0b3
#
DISCID=9807b00c
DTITLE=Various Artist - Country Music Hall Of Fame [CD1]
DYEAR=2014
DGENRE=Country
TTITLE0=George Jones - A House Without Love Is Not A Home
TTITLE1=Waylon Jennings - Dream Baby
TTITLE2=Boxcar Willie - Peace In The Valley
TTITLE3=Patsy Cline - I've Loved And Lost Again
TTITLE4=Charlie Rich - Behind Closed Doors
TTITLE5=Conway Twitty - Broken Heart
TTITLE6=Dolly Parton - It Wasn't God Who Made Honky Tonk Angels
TTITLE7=Charley Pride - There Goes My Everything
TTITLE8=Ferlin Husky - Convoy
TTITLE9=Tanya Tucker - If Your Heart Ain't Busy (Live)
TTITLE10=Kenny Rogers - Elvira
TTITLE11=Merle Haggard - Okie From Muskogee
EXTD=
EXTT0=
EXTT1=
EXTT2=
EXTT3=
EXTT4=
EXTT5=
EXTT6=
EXTT7=
EXTT8=
EXTT9=
EXTT10=
EXTT11=
PLAYORDER=
